<svg xmlns="http://www.w3.org/2000/svg" xmlns:svg="http://www.w3.org/2000/svg" id="svg4604" width="542.998" height="542.998" version="1.1" viewBox="0 0 143.668 143.668"><metadata id="metadata4601"/><g id="layer1" transform="translate(-43.826623,-73.21947)"><g id="g904" transform="translate(47.026055,-483.20426)"><path style="opacity:1;fill:#fff;fill-opacity:1;fill-rule:nonzero;stroke:#fff;stroke-width:12.00000095;stroke-linecap:round;stroke-linejoin:bevel;stroke-miterlimit:4;stroke-dasharray:none;stroke-opacity:1" id="path894" d="m 134.46875,628.25782 a 65.834095,65.834095 0 0 1 -65.834094,65.8341 65.834095,65.834095 0 0 1 -65.834088,-65.8341 65.834095,65.834095 0 0 1 65.834088,-65.83409 65.834095,65.834095 0 0 1 65.834094,65.83409 z"/><g id="g900" transform="translate(276.85698,516.80815)" style="fill:none;stroke:#dc0000;stroke-opacity:1"><path style="fill:none;fill-rule:evenodd;stroke:#dc0000;stroke-width:9.51299953;stroke-linecap:butt;stroke-linejoin:miter;stroke-miterlimit:4;stroke-dasharray:none;stroke-opacity:1" id="path896" d="m -266.08793,119.644 h 17.68164 l 4.45455,-17.13535 8.15111,31.3548 14.26117,-54.858345 16.86881,64.889115 8.61784,-33.15019 20.17312,0.34223"/><path style="opacity:1;fill:#dc0000;fill-opacity:1;fill-rule:nonzero;stroke:#dc0000;stroke-width:11.41562176;stroke-linecap:round;stroke-linejoin:bevel;stroke-miterlimit:4;stroke-dasharray:none;stroke-opacity:1" id="path898" d="m -178.57099,111.44969 a 4.0271775,4.0271775 0 0 0 4.02718,4.02718 4.0271775,4.0271775 0 0 0 4.02716,-4.02718 4.0271775,4.0271775 0 0 0 -4.02716,-4.02718 4.0271775,4.0271775 0 0 0 -4.02718,4.02718 z"/></g><path id="path902" d="M 130.55252,628.2578 A 61.917858,61.917858 0 0 1 68.634654,690.17567 61.917858,61.917858 0 0 1 6.7168026,628.2578 61.917858,61.917858 0 0 1 68.634654,566.33995 61.917858,61.917858 0 0 1 130.55252,628.2578 Z" style="opacity:1;fill:none;fill-opacity:1;fill-rule:nonzero;stroke:#333;stroke-width:14;stroke-linecap:round;stroke-linejoin:bevel;stroke-miterlimit:4;stroke-dasharray:none;stroke-opacity:1"/></g></g></svg>